<svg width="12" height="12" viewBox="0 0 12 12" fill="none" xmlns="http://www.w3.org/2000/svg">
<path d="M8.25 4.315C8.045 4.315 7.875 4.145 7.875 3.94V3.25C7.875 2.725 7.65 2.215 7.26 1.86C6.865 1.5 6.355 1.335 5.815 1.385C4.915 1.47 4.125 2.39 4.125 3.35V3.835C4.125 4.04 3.955 4.21 3.75 4.21C3.545 4.21 3.375 4.04 3.375 3.835V3.345C3.375 2 4.46 0.759997 5.745 0.634997C6.495 0.564997 7.215 0.799997 7.765 1.305C8.31 1.8 8.625 2.51 8.625 3.25V3.94C8.625 4.145 8.455 4.315 8.25 4.315Z" fill="#333333"/>
<path d="M7.49991 11.375H4.49991C2.18991 11.375 1.75991 10.3 1.64991 9.255L1.27491 6.26C1.21991 5.72 1.19991 4.945 1.72491 4.365C2.17491 3.865 2.91991 3.625 3.99991 3.625H7.99991C9.08491 3.625 9.82991 3.87 10.2749 4.365C10.7949 4.945 10.7799 5.72 10.7249 6.25L10.3499 9.255C10.2399 10.3 9.80991 11.375 7.49991 11.375ZM3.99991 4.375C3.15491 4.375 2.57491 4.54 2.27991 4.87C2.03491 5.14 1.95491 5.555 2.01991 6.175L2.39491 9.17C2.47991 9.97 2.69991 10.63 4.49991 10.63H7.49991C9.29991 10.63 9.51991 9.975 9.60491 9.18L9.97991 6.175C10.0449 5.565 9.96491 5.15 9.71991 4.875C9.42491 4.54 8.84491 4.375 7.99991 4.375H3.99991Z" fill="#333333"/>
<path d="M7.71008 6.575C7.43008 6.575 7.20508 6.35 7.20508 6.075C7.20508 5.8 7.43008 5.575 7.70508 5.575C7.98008 5.575 8.20508 5.8 8.20508 6.075C8.20508 6.35 7.98508 6.575 7.71008 6.575Z" fill="#292D32"/>
<path d="M4.21008 6.575C3.93008 6.575 3.70508 6.35 3.70508 6.075C3.70508 5.8 3.93008 5.575 4.20508 5.575C4.48008 5.575 4.70508 5.8 4.70508 6.075C4.70508 6.35 4.48508 6.575 4.21008 6.575Z" fill="#292D32"/>
</svg>
