<svg width="28" height="30" viewBox="0 0 28 30" fill="none" xmlns="http://www.w3.org/2000/svg">
<path d="M5.18988 11.88C4.99988 11.88 4.79988 11.8 4.65988 11.66C4.36988 11.37 4.36988 10.89 4.65988 10.6L8.28988 6.97C8.57988 6.68 9.05988 6.68 9.34988 6.97C9.63988 7.26 9.63988 7.74 9.34988 8.03L5.71988 11.66C5.56988 11.8 5.37988 11.88 5.18988 11.88Z" fill="#00071A"/>
<path d="M18.8101 11.88C18.6201 11.88 18.4301 11.81 18.2801 11.66L14.6501 8.03C14.3601 7.74 14.3601 7.26 14.6501 6.97C14.9401 6.68 15.4201 6.68 15.7101 6.97L19.3401 10.6C19.6301 10.89 19.6301 11.37 19.3401 11.66C19.2001 11.8 19.0001 11.88 18.8101 11.88Z" fill="#00071A"/>
<path d="M20.21 16.1C20.14 16.1 20.07 16.1 20 16.1H19.77H4C3.3 16.11 2.5 16.11 1.92 15.53C1.46 15.08 1.25 14.38 1.25 13.35C1.25 10.6 3.26 10.6 4.22 10.6H19.78C20.74 10.6 22.75 10.6 22.75 13.35C22.75 14.39 22.54 15.08 22.08 15.53C21.56 16.05 20.86 16.1 20.21 16.1ZM4.22 14.6H20.01C20.46 14.61 20.88 14.61 21.02 14.47C21.09 14.4 21.24 14.16 21.24 13.35C21.24 12.22 20.96 12.1 19.77 12.1H4.22C3.03 12.1 2.75 12.22 2.75 13.35C2.75 14.16 2.91 14.4 2.97 14.47C3.11 14.6 3.54 14.6 3.98 14.6H4.22Z" fill="#00071A"/>
<path d="M9.75977 23.8C9.34977 23.8 9.00977 23.46 9.00977 23.05V19.5C9.00977 19.09 9.34977 18.75 9.75977 18.75C10.1698 18.75 10.5098 19.09 10.5098 19.5V23.05C10.5098 23.47 10.1698 23.8 9.75977 23.8Z" fill="#292D32"/>
<path d="M14.3599 23.8C13.9499 23.8 13.6099 23.46 13.6099 23.05V19.5C13.6099 19.09 13.9499 18.75 14.3599 18.75C14.7699 18.75 15.1099 19.09 15.1099 19.5V23.05C15.1099 23.47 14.7699 23.8 14.3599 23.8Z" fill="#292D32"/>
<path d="M14.8902 28.25H8.86024C5.28024 28.25 4.48024 26.12 4.17024 24.27L2.76024 15.62C2.69024 15.21 2.97024 14.83 3.38024 14.76C3.79024 14.69 4.17024 14.97 4.24024 15.38L5.65024 24.02C5.94024 25.79 6.54024 26.75 8.86024 26.75H14.8902C17.4602 26.75 17.7502 25.85 18.0802 24.11L19.7602 15.36C19.8402 14.95 20.2302 14.68 20.6402 14.77C21.0502 14.85 21.3102 15.24 21.2302 15.65L19.5502 24.4C19.1602 26.43 18.5102 28.25 14.8902 28.25Z" fill="#292D32"/>
</svg>
