<svg width="25" height="25" viewBox="0 0 25 25" fill="none" xmlns="http://www.w3.org/2000/svg">
<path d="M8.75293 6.56299C8.34293 6.56299 8.00293 6.22299 8.00293 5.81299V2.81299C8.00293 2.40299 8.34293 2.06299 8.75293 2.06299C9.16293 2.06299 9.50293 2.40299 9.50293 2.81299V5.81299C9.50293 6.22299 9.16293 6.56299 8.75293 6.56299Z" fill="#888888"/>
<path d="M16.7529 6.56299C16.3429 6.56299 16.0029 6.22299 16.0029 5.81299V2.81299C16.0029 2.40299 16.3429 2.06299 16.7529 2.06299C17.1629 2.06299 17.5029 2.40299 17.5029 2.81299V5.81299C17.5029 6.22299 17.1629 6.56299 16.7529 6.56299Z" fill="#888888"/>
<path d="M9.25293 15.3128C9.12293 15.3128 8.99293 15.2828 8.87293 15.2328C8.74293 15.1828 8.64293 15.1128 8.54293 15.0228C8.36293 14.8328 8.25293 14.5828 8.25293 14.3128C8.25293 14.1828 8.28293 14.0528 8.33293 13.9328C8.38293 13.8128 8.45293 13.7028 8.54293 13.6028C8.64293 13.5128 8.74293 13.4428 8.87293 13.3928C9.23293 13.2428 9.68293 13.3228 9.96293 13.6028C10.1429 13.7928 10.2529 14.0528 10.2529 14.3128C10.2529 14.3728 10.2429 14.4428 10.2329 14.5128C10.2229 14.5728 10.2029 14.6328 10.1729 14.6928C10.1529 14.7528 10.1229 14.8128 10.0829 14.8728C10.0529 14.9228 10.0029 14.9728 9.96293 15.0228C9.77293 15.2028 9.51293 15.3128 9.25293 15.3128Z" fill="#888888"/>
<path d="M12.7529 15.3129C12.6229 15.3129 12.4929 15.2829 12.3729 15.2329C12.2429 15.1829 12.1429 15.1129 12.0429 15.0229C11.8629 14.8329 11.7529 14.5829 11.7529 14.3129C11.7529 14.1829 11.7829 14.0529 11.8329 13.9329C11.8829 13.8129 11.9529 13.7029 12.0429 13.6029C12.1429 13.5129 12.2429 13.4428 12.3729 13.3928C12.7329 13.2328 13.1829 13.3229 13.4629 13.6029C13.6429 13.7929 13.7529 14.0529 13.7529 14.3129C13.7529 14.3729 13.7429 14.4429 13.7329 14.5129C13.7229 14.5729 13.7029 14.6329 13.6729 14.6929C13.6529 14.7529 13.6229 14.8129 13.5829 14.8729C13.5529 14.9229 13.5029 14.9729 13.4629 15.0229C13.2729 15.2029 13.0129 15.3129 12.7529 15.3129Z" fill="#888888"/>
<path d="M16.2529 15.3129C16.1229 15.3129 15.9929 15.2829 15.8729 15.2329C15.7429 15.1829 15.6429 15.1129 15.5429 15.0229C15.5029 14.9729 15.4629 14.9229 15.4229 14.8729C15.3829 14.8129 15.3529 14.7529 15.3329 14.6929C15.3029 14.6329 15.2829 14.5729 15.2729 14.5129C15.2629 14.4429 15.2529 14.3729 15.2529 14.3129C15.2529 14.0529 15.3629 13.7929 15.5429 13.6029C15.6429 13.5129 15.7429 13.4428 15.8729 13.3928C16.2429 13.2328 16.6829 13.3229 16.9629 13.6029C17.1429 13.7929 17.2529 14.0529 17.2529 14.3129C17.2529 14.3729 17.2429 14.4429 17.2329 14.5129C17.2229 14.5729 17.2029 14.6329 17.1729 14.6929C17.1529 14.7529 17.1229 14.8129 17.0829 14.8729C17.0529 14.9229 17.0029 14.9729 16.9629 15.0229C16.7729 15.2029 16.5129 15.3129 16.2529 15.3129Z" fill="#888888"/>
<path d="M9.25293 18.8132C9.12293 18.8132 8.99293 18.7832 8.87293 18.7332C8.75293 18.6832 8.64293 18.6132 8.54293 18.5232C8.36293 18.3332 8.25293 18.0732 8.25293 17.8132C8.25293 17.6832 8.28293 17.5532 8.33293 17.4332C8.38293 17.3032 8.45293 17.1932 8.54293 17.1032C8.91293 16.7332 9.59293 16.7332 9.96293 17.1032C10.1429 17.2932 10.2529 17.5532 10.2529 17.8132C10.2529 18.0732 10.1429 18.3332 9.96293 18.5232C9.77293 18.7032 9.51293 18.8132 9.25293 18.8132Z" fill="#888888"/>
<path d="M12.7529 18.8132C12.4929 18.8132 12.2329 18.7032 12.0429 18.5232C11.8629 18.3332 11.7529 18.0732 11.7529 17.8132C11.7529 17.6832 11.7829 17.5532 11.8329 17.4332C11.8829 17.3032 11.9529 17.1932 12.0429 17.1032C12.4129 16.7332 13.0929 16.7332 13.4629 17.1032C13.5529 17.1932 13.6229 17.3032 13.6729 17.4332C13.7229 17.5532 13.7529 17.6832 13.7529 17.8132C13.7529 18.0732 13.6429 18.3332 13.4629 18.5232C13.2729 18.7032 13.0129 18.8132 12.7529 18.8132Z" fill="#888888"/>
<path d="M16.2529 18.8129C15.9929 18.8129 15.7329 18.7029 15.5429 18.5229C15.4529 18.4329 15.3829 18.3229 15.3329 18.1929C15.2829 18.0729 15.2529 17.9429 15.2529 17.8129C15.2529 17.6829 15.2829 17.5529 15.3329 17.4329C15.3829 17.3029 15.4529 17.1929 15.5429 17.1029C15.7729 16.8729 16.1229 16.7629 16.4429 16.8329C16.5129 16.8429 16.5729 16.8629 16.6329 16.8929C16.6929 16.9129 16.7529 16.9429 16.8129 16.9829C16.8629 17.0129 16.9129 17.0629 16.9629 17.1029C17.1429 17.2929 17.2529 17.5529 17.2529 17.8129C17.2529 18.0729 17.1429 18.3329 16.9629 18.5229C16.7729 18.7029 16.5129 18.8129 16.2529 18.8129Z" fill="#888888"/>
<path d="M21.2529 10.6528H4.25293C3.84293 10.6528 3.50293 10.3128 3.50293 9.90283C3.50293 9.49283 3.84293 9.15283 4.25293 9.15283H21.2529C21.6629 9.15283 22.0029 9.49283 22.0029 9.90283C22.0029 10.3128 21.6629 10.6528 21.2529 10.6528Z" fill="#888888"/>
<path d="M16.7529 23.563H8.75293C5.10293 23.563 3.00293 21.463 3.00293 17.813V9.31299C3.00293 5.66299 5.10293 3.56299 8.75293 3.56299H16.7529C20.4029 3.56299 22.5029 5.66299 22.5029 9.31299V17.813C22.5029 21.463 20.4029 23.563 16.7529 23.563ZM8.75293 5.06299C5.89293 5.06299 4.50293 6.45299 4.50293 9.31299V17.813C4.50293 20.673 5.89293 22.063 8.75293 22.063H16.7529C19.6129 22.063 21.0029 20.673 21.0029 17.813V9.31299C21.0029 6.45299 19.6129 5.06299 16.7529 5.06299H8.75293Z" fill="#888888"/>
</svg>
