<svg width="17" height="17" viewBox="0 0 17 17" fill="none" xmlns="http://www.w3.org/2000/svg">
<path d="M11.1016 6.44649C10.8282 6.44649 10.6016 6.21982 10.6016 5.94649V5.02649C10.6016 4.32649 10.3016 3.64649 9.78156 3.17315C9.2549 2.69315 8.5749 2.47315 7.8549 2.53982C6.6549 2.65315 5.60156 3.87982 5.60156 5.15982V5.80649C5.60156 6.07982 5.3749 6.30649 5.10156 6.30649C4.82823 6.30649 4.60156 6.07982 4.60156 5.80649V5.15315C4.60156 3.35982 6.04823 1.70649 7.76156 1.53982C8.76156 1.44649 9.72156 1.75982 10.4549 2.43315C11.1816 3.09315 11.6016 4.03982 11.6016 5.02649V5.94649C11.6016 6.21982 11.3749 6.44649 11.1016 6.44649Z" fill="white"/>
<path d="M10.1024 15.8599H6.10242C3.02242 15.8599 2.44908 14.4266 2.30242 13.0333L1.80242 9.03994C1.72908 8.31994 1.70242 7.28661 2.40242 6.51328C3.00242 5.84661 3.99575 5.52661 5.43575 5.52661H10.7691C12.2158 5.52661 13.2091 5.85328 13.8024 6.51328C14.4958 7.28661 14.4758 8.31994 14.4024 9.02661L13.9024 13.0333C13.7558 14.4266 13.1824 15.8599 10.1024 15.8599ZM5.43575 6.52661C4.30908 6.52661 3.53575 6.74661 3.14242 7.18661C2.81575 7.54661 2.70908 8.09994 2.79575 8.92661L3.29575 12.9199C3.40908 13.9866 3.70242 14.8666 6.10242 14.8666H10.1024C12.5024 14.8666 12.7958 13.9933 12.9091 12.9333L13.4091 8.92661C13.4958 8.11328 13.3891 7.55994 13.0624 7.19328C12.6691 6.74661 11.8958 6.52661 10.7691 6.52661H5.43575Z" fill="white"/>
<path d="M10.3823 9.45992C10.009 9.45992 9.70898 9.15992 9.70898 8.79325C9.70898 8.42659 10.009 8.12659 10.3757 8.12659C10.7423 8.12659 11.0423 8.42659 11.0423 8.79325C11.0423 9.15992 10.749 9.45992 10.3823 9.45992Z" fill="white"/>
<path d="M5.71533 9.45992C5.34199 9.45992 5.04199 9.15992 5.04199 8.79325C5.04199 8.42659 5.34199 8.12659 5.70866 8.12659C6.07533 8.12659 6.37533 8.42659 6.37533 8.79325C6.37533 9.15992 6.08199 9.45992 5.71533 9.45992Z" fill="white"/>
</svg>
