<svg width="14" height="14" viewBox="0 0 14 14" fill="none" xmlns="http://www.w3.org/2000/svg">
<path d="M8.57503 13.2708H5.42503C2.54336 13.2708 1.31836 12.04 1.31836 9.16416V6.545C1.31836 6.30583 1.51669 6.1075 1.75586 6.1075C1.99503 6.1075 2.19336 6.30583 2.19336 6.545V9.16416C2.19336 11.55 3.03919 12.3958 5.42503 12.3958H8.56919C10.955 12.3958 11.8009 11.55 11.8009 9.16416V6.545C11.8009 6.30583 11.9992 6.1075 12.2384 6.1075C12.4775 6.1075 12.6759 6.30583 12.6759 6.545V9.16416C12.6817 12.04 11.4509 13.2708 8.57503 13.2708Z" fill="#555555"/>
<path d="M6.99992 7.4375C6.35825 7.4375 5.77492 7.18666 5.36075 6.72583C4.94659 6.265 4.75409 5.66416 4.81825 5.0225L5.20909 1.12583C5.23242 0.904164 5.41909 0.729164 5.64659 0.729164H8.37075C8.59825 0.729164 8.78492 0.898331 8.80825 1.12583L9.19909 5.0225C9.26325 5.66416 9.07075 6.265 8.65659 6.72583C8.22492 7.18666 7.64159 7.4375 6.99992 7.4375ZM6.03742 1.60416L5.68742 5.11C5.64659 5.50083 5.76325 5.86833 6.00825 6.13666C6.50409 6.685 7.49575 6.685 7.99159 6.13666C8.23659 5.8625 8.35325 5.495 8.31242 5.11L7.96242 1.60416H6.03742Z" fill="#555555"/>
<path d="M10.6808 7.4375C9.49659 7.4375 8.44075 6.48083 8.31825 5.3025L7.90992 1.21333C7.89825 1.09083 7.93909 0.968331 8.02075 0.874997C8.10242 0.781664 8.21909 0.729164 8.34742 0.729164H10.1266C11.8416 0.729164 12.6408 1.44666 12.8799 3.20833L13.0433 4.83C13.1133 5.51833 12.9033 6.17166 12.4541 6.6675C12.0049 7.16333 11.3749 7.4375 10.6808 7.4375ZM8.83159 1.60416L9.19325 5.215C9.26909 5.94416 9.94575 6.5625 10.6808 6.5625C11.1241 6.5625 11.5208 6.39333 11.8066 6.08416C12.0866 5.775 12.2149 5.36083 12.1741 4.9175L12.0108 3.31333C11.8299 1.995 11.4041 1.60416 10.1266 1.60416H8.83159Z" fill="#555555"/>
<path d="M3.29001 7.4375C2.59585 7.4375 1.96585 7.16333 1.51668 6.6675C1.06751 6.17166 0.857513 5.51833 0.927513 4.83L1.08501 3.22583C1.33001 1.44666 2.12918 0.729164 3.84418 0.729164H5.62335C5.74585 0.729164 5.86251 0.781664 5.95001 0.874997C6.03751 0.968331 6.07251 1.09083 6.06085 1.21333L5.65251 5.3025C5.53001 6.48083 4.47418 7.4375 3.29001 7.4375ZM3.84418 1.60416C2.56668 1.60416 2.14085 1.98916 1.95418 3.325L1.79668 4.9175C1.75001 5.36083 1.88418 5.775 2.16418 6.08416C2.44418 6.39333 2.84085 6.5625 3.29001 6.5625C4.02501 6.5625 4.70751 5.94416 4.77751 5.215L5.13918 1.60416H3.84418Z" fill="#555555"/>
<path d="M8.45841 13.2708H5.54175C5.30258 13.2708 5.10425 13.0725 5.10425 12.8333V11.375C5.10425 10.15 5.77508 9.47916 7.00008 9.47916C8.22508 9.47916 8.89591 10.15 8.89591 11.375V12.8333C8.89591 13.0725 8.69758 13.2708 8.45841 13.2708ZM5.97925 12.3958H8.02091V11.375C8.02091 10.64 7.73508 10.3542 7.00008 10.3542C6.26508 10.3542 5.97925 10.64 5.97925 11.375V12.3958Z" fill="#555555"/>
</svg>
