<svg width="16" height="16" viewBox="0 0 16 16" fill="none" xmlns="http://www.w3.org/2000/svg">
<path d="M12.5957 4.11034L4.11046 12.5956C3.91719 12.7889 3.59663 12.7889 3.40336 12.5956C3.21008 12.4023 3.21008 12.0818 3.40336 11.8885L11.8886 3.40323C12.0819 3.20995 12.4025 3.20995 12.5957 3.40323C12.789 3.59651 12.789 3.91706 12.5957 4.11034Z" fill="#333333"/>
<path d="M8.45519 8.5H7.53211C7.51109 8.5 7.49365 8.27333 7.49365 8C7.49365 7.72667 7.51109 7.5 7.53211 7.5H8.45519C8.47622 7.5 8.49365 7.72667 8.49365 8C8.49365 8.27333 8.47622 8.5 8.45519 8.5Z" fill="#333333"/>
<path d="M11.8891 12.5956L3.40377 4.11034C3.21049 3.91707 3.21049 3.59651 3.40377 3.40324C3.59705 3.20996 3.9176 3.20996 4.11088 3.40324L12.5962 11.8885C12.7894 12.0818 12.7894 12.4023 12.5962 12.5956C12.4029 12.7889 12.0823 12.7889 11.8891 12.5956Z" fill="#333333"/>
</svg>
