<svg width="6" height="6" viewBox="0 0 6 6" fill="none" xmlns="http://www.w3.org/2000/svg">
<path d="M2.99979 5.31229C2.95229 5.31229 2.90479 5.29479 2.86729 5.25729L1.34979 3.73979C1.27729 3.66729 1.27729 3.54729 1.34979 3.47479C1.42229 3.40229 1.54229 3.40229 1.61479 3.47479L2.99979 4.85979L4.38479 3.47479C4.45729 3.40229 4.57729 3.40229 4.64979 3.47479C4.72229 3.54729 4.72229 3.66729 4.64979 3.73979L3.13229 5.25729C3.09479 5.29479 3.04729 5.31229 2.99979 5.31229Z" fill="#FCFCFC"/>
<path d="M3 5.27C2.8975 5.27 2.8125 5.185 2.8125 5.0825V0.875C2.8125 0.7725 2.8975 0.6875 3 0.6875C3.1025 0.6875 3.1875 0.7725 3.1875 0.875V5.0825C3.1875 5.185 3.1025 5.27 3 5.27Z" fill="#FCFCFC"/>
</svg>
