<svg width="16" height="16" viewBox="0 0 16 16" fill="none" xmlns="http://www.w3.org/2000/svg">
<path d="M15.3536 2.64625L13.3536 0.64625C13.2598 0.552429 13.1325 0.499722 12.9999 0.499722C12.8672 0.499722 12.7399 0.552429 12.6461 0.64625C12.5523 0.74007 12.4996 0.867318 12.4996 1C12.4996 1.13268 12.5523 1.25993 12.6461 1.35375L12.7386 1.44562L9.29048 4.03187L6.90173 4.51C6.805 4.52938 6.71611 4.57676 6.6461 4.64625L1.43735 9.85375C1.15607 10.1351 0.998047 10.5166 0.998047 10.9144C0.998047 11.3122 1.15607 11.6937 1.43735 11.975L4.02485 14.5625C4.30615 14.8438 4.68767 15.0018 5.08548 15.0018C5.48328 15.0018 5.8648 14.8438 6.1461 14.5625L11.3536 9.35563C11.4232 9.28573 11.4707 9.19679 11.4899 9.1L11.968 6.71125L14.5542 3.26312L14.6461 3.35562C14.6926 3.40208 14.7477 3.43893 14.8084 3.46407C14.8691 3.48921 14.9342 3.50215 14.9999 3.50215C15.0655 3.50215 15.1306 3.48921 15.1913 3.46407C15.252 3.43893 15.3071 3.40208 15.3536 3.35562C15.4001 3.30917 15.4369 3.25402 15.462 3.19332C15.4872 3.13263 15.5001 3.06757 15.5001 3.00187C15.5001 2.93618 15.4872 2.87112 15.462 2.81043C15.4369 2.74973 15.4001 2.69458 15.3536 2.64812V2.64625ZM5.99985 6.70687L9.29298 10L6.49985 12.7931L3.20673 9.5L5.99985 6.70687ZM5.08548 14C5.01987 14.0002 4.95488 13.9873 4.89427 13.9622C4.83366 13.9371 4.77862 13.9003 4.73235 13.8538L2.1461 11.2675C2.0524 11.1737 1.99977 11.0466 1.99977 10.9141C1.99977 10.7815 2.0524 10.6544 2.1461 10.5606L2.49985 10.2069L5.79298 13.5L5.43735 13.8538C5.34396 13.947 5.21747 13.9996 5.08548 14ZM11.0999 6.2C11.055 6.25965 11.0243 6.32866 11.0099 6.40187L10.5392 8.75375L9.99985 9.29313L6.70673 6L7.2461 5.46062L9.59798 4.99C9.67119 4.9756 9.7402 4.94483 9.79985 4.9L13.453 2.16L13.8399 2.54687L11.0999 6.2Z" fill="#000"/>
</svg>
