<svg width="16" height="17" viewBox="0 0 16 17" fill="none" xmlns="http://www.w3.org/2000/svg">
<path d="M5.6665 9.11527C5.39317 9.11527 5.1665 8.88861 5.1665 8.61527V5.42859C5.1665 5.15526 5.39317 4.92859 5.6665 4.92859C5.93984 4.92859 6.1665 5.15526 6.1665 5.42859V8.61527C6.1665 8.88861 5.93984 9.11527 5.6665 9.11527Z" fill="#333333"/>
<path d="M5.6665 15.7819C5.39317 15.7819 5.1665 15.5552 5.1665 15.2819V13.2819C5.1665 13.0085 5.39317 12.7819 5.6665 12.7819C5.93984 12.7819 6.1665 13.0085 6.1665 13.2819V15.2819C6.1665 15.5552 5.93984 15.7819 5.6665 15.7819Z" fill="#333333"/>
<path d="M10.3335 15.7819C10.0602 15.7819 9.8335 15.5553 9.8335 15.2819V5.42859C9.8335 5.15526 10.0602 4.92859 10.3335 4.92859C10.6068 4.92859 10.8335 5.15526 10.8335 5.42859V15.2819C10.8335 15.5553 10.6068 15.7819 10.3335 15.7819Z" fill="#333333"/>
<path d="M5.53311 5.84851H4.03311C3.83978 5.84851 3.67312 5.74186 3.58646 5.56852C3.49979 5.39519 3.51979 5.1952 3.63313 5.04187C3.75979 4.8752 3.83312 4.66185 3.83312 4.44185V3.84188C3.83312 3.62854 3.75979 3.4152 3.63313 3.24186C3.51979 3.08853 3.49979 2.88854 3.58646 2.71521C3.67312 2.54854 3.84644 2.43518 4.03311 2.43518H5.53311C6.47311 2.43518 7.23312 3.19521 7.23312 4.13521C7.23312 4.59521 7.05312 5.02188 6.72645 5.34188C6.41978 5.66855 5.99311 5.84851 5.53311 5.84851ZM4.79312 4.84851H5.53311C5.71978 4.84851 5.89312 4.77519 6.01978 4.64852C6.15978 4.51519 6.23312 4.34185 6.23312 4.14852C6.23312 3.76185 5.91978 3.44853 5.53311 3.44853H4.79312C4.81979 3.58186 4.83312 3.71518 4.83312 3.84851V4.44853C4.83312 4.58186 4.81979 4.71518 4.79312 4.84851Z" fill="#333333"/>
<path d="M2.83317 6.44853C2.39317 6.44853 1.80651 6.30851 1.19318 5.76184C0.98651 5.57517 0.839844 5.24186 0.839844 4.94853V3.38851C0.839844 3.12851 0.959845 2.82185 1.13318 2.64185C1.75318 1.99518 2.39318 1.85518 2.81984 1.84851C2.82651 1.84851 2.83318 1.84851 2.83984 1.84851C3.36651 1.84851 3.88651 2.06185 4.25317 2.43518C4.31984 2.50185 4.38651 2.58187 4.44651 2.66187C4.69318 2.98853 4.83317 3.41518 4.83317 3.84851V4.44853C4.83317 4.88186 4.69317 5.30852 4.43317 5.64852C4.09983 6.09519 3.5865 6.38185 3.03316 6.43518C2.97316 6.44185 2.89984 6.44853 2.83317 6.44853ZM2.83317 2.84851C2.8265 2.84851 2.82651 2.84851 2.81984 2.84851C2.47984 2.85518 2.1465 3.02187 1.8465 3.33521C1.8465 3.33521 1.83317 3.38186 1.83317 3.40186V4.9552C1.83317 4.96853 1.85316 5.0152 1.8665 5.0352C2.2065 5.3352 2.57983 5.48853 2.93317 5.44853C3.21317 5.42186 3.45985 5.28184 3.63318 5.05518C3.75985 4.88851 3.83317 4.6752 3.83317 4.4552V3.85518C3.83317 3.64185 3.75985 3.42854 3.63318 3.25521C3.59985 3.20188 3.5665 3.17518 3.53984 3.14185C3.35317 2.95518 3.09984 2.84851 2.83317 2.84851Z" fill="#333333"/>
<path d="M11.9666 5.84859H10.4666C10.0066 5.84859 9.57995 5.66863 9.25995 5.34196C8.94662 5.03529 8.7666 4.6086 8.7666 4.1486C8.7666 3.2086 9.52661 2.44861 10.4666 2.44861H11.9666C12.1533 2.44861 12.3266 2.55526 12.4133 2.7286C12.4999 2.89526 12.4799 3.10196 12.3666 3.25529C12.2399 3.42196 12.1666 3.63527 12.1666 3.85527V4.45528C12.1666 4.67528 12.2399 4.88192 12.3666 5.05526C12.4799 5.20859 12.4999 5.40862 12.4133 5.58195C12.3333 5.74195 12.1599 5.84859 11.9666 5.84859ZM10.4666 3.44861C10.0799 3.44861 9.7666 3.76193 9.7666 4.1486C9.7666 4.33527 9.83995 4.50863 9.96661 4.63529C10.0999 4.77529 10.2733 4.84859 10.4666 4.84859H11.2066C11.1799 4.71526 11.1666 4.58194 11.1666 4.44861V3.84859C11.1666 3.71526 11.1799 3.58194 11.2066 3.44861H10.4666Z" fill="#333333"/>
<path d="M13.1668 6.44857C13.0935 6.44857 13.0268 6.44189 12.9602 6.44189C12.4068 6.38856 11.9002 6.1019 11.5602 5.65523C11.3002 5.31523 11.1602 4.88857 11.1602 4.45524V3.85522C11.1602 3.42189 11.3002 2.99523 11.5602 2.65523C11.6068 2.58857 11.6735 2.50856 11.7402 2.44189C12.1135 2.06856 12.6268 1.85522 13.1535 1.85522C13.1602 1.85522 13.1668 1.85522 13.1735 1.85522C13.6002 1.86189 14.2402 2.00189 14.8602 2.64856C15.0335 2.82856 15.1535 3.13522 15.1535 3.39522V4.95524C15.1535 5.24857 15.0068 5.58188 14.8002 5.76188C14.1935 6.30855 13.6068 6.44857 13.1668 6.44857ZM13.1668 2.84855C12.9002 2.84855 12.6402 2.95522 12.4602 3.14189C12.4335 3.16855 12.4068 3.2019 12.3802 3.23523C12.2402 3.4219 12.1668 3.63522 12.1668 3.84855V4.44857C12.1668 4.66857 12.2402 4.87525 12.3668 5.04858C12.5402 5.27525 12.7868 5.41523 13.0668 5.44857C13.4202 5.48857 13.7935 5.33522 14.1535 5.02189C14.1535 5.02189 14.1668 4.97524 14.1735 4.95524V3.4019C14.1735 3.38856 14.1535 3.34191 14.1468 3.32857C13.8602 3.02857 13.5268 2.8619 13.1868 2.8619C13.1735 2.84856 13.1735 2.84855 13.1668 2.84855Z" fill="#333333"/>
<path d="M5.6665 13.7819C4.83984 13.7819 4.1665 13.1086 4.1665 12.2819V9.61523C4.1665 8.78857 4.83984 8.11523 5.6665 8.11523C6.49317 8.11523 7.1665 8.78857 7.1665 9.61523V12.2819C7.1665 13.1086 6.49317 13.7819 5.6665 13.7819ZM5.6665 9.11523C5.39317 9.11523 5.1665 9.3419 5.1665 9.61523V12.2819C5.1665 12.5552 5.39317 12.7819 5.6665 12.7819C5.93984 12.7819 6.1665 12.5552 6.1665 12.2819V9.61523C6.1665 9.3419 5.93984 9.11523 5.6665 9.11523Z" fill="#333333"/>
</svg>
