<svg width="18" height="14" viewBox="0 0 18 14" fill="#000" xmlns="http://www.w3.org/2000/svg">
<path d="M9.00001 0.333252C10.7236 0.333252 12.3577 0.931232 13.7805 2.0383C15.2033 3.13729 16.4146 4.74537 17.2846 6.75749C17.3496 6.91103 17.3496 7.08881 17.2846 7.23426C15.5447 11.2585 12.4472 13.6666 9.00001 13.6666H8.99188C5.55285 13.6666 2.45529 11.2585 0.715452 7.23426C0.650412 7.08881 0.650412 6.91103 0.715452 6.75749C2.45529 2.73325 5.55285 0.333252 8.99188 0.333252H9.00001ZM9.00001 3.7676C7.20326 3.7676 5.74797 5.21406 5.74797 6.99992C5.74797 8.7777 7.20326 10.2242 9.00001 10.2242C10.7886 10.2242 12.2439 8.7777 12.2439 6.99992C12.2439 5.21406 10.7886 3.7676 9.00001 3.7676ZM9.00098 4.97794C10.1148 4.97794 11.0254 5.88299 11.0254 6.99814C11.0254 8.10521 10.1148 9.01026 9.00098 9.01026C7.87903 9.01026 6.96846 8.10521 6.96846 6.99814C6.96846 6.86077 6.98472 6.73147 7.00911 6.60218H7.04976C7.9522 6.60218 8.68391 5.89107 8.71643 5.00218C8.80586 4.98602 8.90342 4.97794 9.00098 4.97794Z" fill="#888888"/>
</svg>