<svg width="14" height="14" viewBox="0 0 14 14" fill="none" xmlns="http://www.w3.org/2000/svg">
<path d="M6.38173 13.2125C6.10173 13.2125 5.82757 13.1425 5.5709 13.0025C5.05756 12.7166 4.7484 12.1975 4.7484 11.6141V8.52247C4.7484 8.23081 4.5559 7.79331 4.37506 7.57164L2.1934 5.26164C1.8259 4.89414 1.5459 4.26414 1.5459 3.79164V2.44998C1.5459 1.51664 2.25173 0.787476 3.15007 0.787476H10.8501C11.7367 0.787476 12.4542 1.50498 12.4542 2.39164V3.67498C12.4542 4.28748 12.0867 4.98164 11.7426 5.32581L9.21673 7.55998C8.97173 7.76414 8.77923 8.21331 8.77923 8.57498V11.0833C8.77923 11.6025 8.45256 12.2033 8.04423 12.4483L7.23923 12.9675C6.97673 13.1308 6.67923 13.2125 6.38173 13.2125ZM3.15007 1.66248C2.74173 1.66248 2.4209 2.00664 2.4209 2.44998V3.79164C2.4209 4.00748 2.5959 4.42748 2.81756 4.64914L5.04007 6.98831C5.33757 7.35581 5.62923 7.96831 5.62923 8.51664V11.6083C5.62923 11.9875 5.89173 12.1741 6.00256 12.2325C6.24756 12.3666 6.54506 12.3666 6.77256 12.2266L7.5834 11.7075C7.74673 11.6083 7.91006 11.2933 7.91006 11.0833V8.57498C7.91006 7.95081 8.2134 7.26248 8.6509 6.89498L11.1476 4.68414C11.3459 4.48581 11.5851 4.01331 11.5851 3.66914V2.39164C11.5851 1.98914 11.2584 1.66248 10.8559 1.66248H3.15007Z" fill="#555555"/>
<path d="M3.50014 6.27082C3.41847 6.27082 3.34264 6.24749 3.2668 6.20666C3.06264 6.07832 2.99847 5.80416 3.1268 5.59999L6.00264 0.991658C6.13097 0.787491 6.3993 0.723324 6.60347 0.851658C6.80764 0.979991 6.8718 1.24832 6.74347 1.45249L3.86764 6.06082C3.78597 6.19499 3.64597 6.27082 3.50014 6.27082Z" fill="#555555"/>
</svg>
