<svg width="16" height="16" viewBox="0 0 16 16" fill="none" xmlns="http://www.w3.org/2000/svg">
<path d="M13.2198 5.8L10.1998 2.78C9.56649 2.14667 8.69315 1.80667 7.79982 1.85334L4.46649 2.01334C3.13315 2.07334 2.07315 3.13334 2.00649 4.46L1.84649 7.79333C1.80649 8.68667 2.13982 9.56 2.77315 10.1933L5.79315 13.2133C7.03315 14.4533 9.04649 14.4533 10.2932 13.2133L13.2198 10.2867C14.4665 9.05334 14.4665 7.04 13.2198 5.8ZM6.33315 8.25333C5.27982 8.25333 4.41315 7.39334 4.41315 6.33334C4.41315 5.27334 5.27982 4.41334 6.33315 4.41334C7.38649 4.41334 8.25315 5.27334 8.25315 6.33334C8.25315 7.39334 7.38649 8.25333 6.33315 8.25333ZM11.6865 9.02L9.01982 11.6867C8.91982 11.7867 8.79315 11.8333 8.66649 11.8333C8.53982 11.8333 8.41315 11.7867 8.31315 11.6867C8.11982 11.4933 8.11982 11.1733 8.31315 10.98L10.9798 8.31333C11.1732 8.12 11.4932 8.12 11.6865 8.31333C11.8798 8.50667 11.8798 8.82667 11.6865 9.02Z" fill="#FCFCFC"/>
</svg>
