<svg width="16" height="17" viewBox="0 0 16 17" fill="none" xmlns="http://www.w3.org/2000/svg">
<path d="M10.6465 15.7819H5.31315C3.03315 15.7819 2.14648 14.8952 2.14648 12.6152V7.28186C2.14648 7.00853 2.37315 6.78186 2.64648 6.78186H13.3132C13.5865 6.78186 13.8132 7.00853 13.8132 7.28186V12.6152C13.8132 14.8952 12.9265 15.7819 10.6465 15.7819ZM3.14648 7.78186V12.6152C3.14648 14.3352 3.59315 14.7819 5.31315 14.7819H10.6465C12.3665 14.7819 12.8132 14.3352 12.8132 12.6152V7.78186H3.14648Z" fill="#333333"/>
<path d="M12.9998 7.78194H2.99984C1.83317 7.78194 1.1665 7.11527 1.1665 5.94861V5.28194C1.1665 4.11528 1.83317 3.44861 2.99984 3.44861H12.9998C14.1332 3.44861 14.8332 4.14861 14.8332 5.28194V5.94861C14.8332 7.08194 14.1332 7.78194 12.9998 7.78194ZM2.99984 4.44861C2.39317 4.44861 2.1665 4.67527 2.1665 5.28194V5.94861C2.1665 6.55527 2.39317 6.78194 2.99984 6.78194H12.9998C13.5865 6.78194 13.8332 6.53527 13.8332 5.94861V5.28194C13.8332 4.69527 13.5865 4.44861 12.9998 4.44861H2.99984Z" fill="#333333"/>
<path d="M7.76023 4.44857H4.08023C3.94023 4.44857 3.80689 4.38857 3.71356 4.28857C3.30689 3.8419 3.32023 3.15524 3.74689 2.72857L4.69356 1.7819C5.13356 1.3419 5.86023 1.3419 6.30023 1.7819L8.11356 3.59524C8.25356 3.73524 8.30023 3.95524 8.22022 4.1419C8.14689 4.32857 7.96689 4.44857 7.76023 4.44857ZM4.44689 3.44857H6.56023L5.59356 2.48857C5.54023 2.43524 5.45356 2.43524 5.40023 2.48857L4.45356 3.43524C4.45356 3.4419 4.44689 3.4419 4.44689 3.44857Z" fill="#333333"/>
<path d="M11.9134 4.44857H8.23339C8.03339 4.44857 7.84672 4.32857 7.77339 4.1419C7.69339 3.95524 7.74006 3.7419 7.88006 3.59524L9.69339 1.7819C10.1334 1.3419 10.8601 1.3419 11.3001 1.7819L12.2467 2.72857C12.6734 3.15524 12.6934 3.8419 12.2801 4.28857C12.1867 4.38857 12.0534 4.44857 11.9134 4.44857ZM9.44672 3.44857H11.5601C11.5534 3.4419 11.5534 3.4419 11.5467 3.43524L10.6001 2.48857C10.5467 2.43524 10.4601 2.43524 10.4067 2.48857L9.44672 3.44857Z" fill="#333333"/>
<path d="M6.62663 11.8819C6.43996 11.8819 6.24663 11.8352 6.07329 11.7419C5.69329 11.5352 5.45996 11.1419 5.45996 10.7152V7.28186C5.45996 7.00853 5.68663 6.78186 5.95996 6.78186H9.98663C10.26 6.78186 10.4866 7.00853 10.4866 7.28186V10.7019C10.4866 11.1352 10.2533 11.5285 9.8733 11.7285C9.4933 11.9352 9.0333 11.9085 8.6733 11.6685L8.07996 11.2685C8.02663 11.2285 7.95329 11.2285 7.8933 11.2685L7.26663 11.6819C7.07329 11.8152 6.84663 11.8819 6.62663 11.8819ZM6.45996 7.78186V10.7085C6.45996 10.7952 6.51329 10.8352 6.54663 10.8552C6.57996 10.8752 6.64663 10.8952 6.71996 10.8485L7.34663 10.4352C7.73996 10.1752 8.24663 10.1752 8.63329 10.4352L9.22663 10.8352C9.29996 10.8819 9.36663 10.8619 9.39996 10.8419C9.4333 10.8219 9.48663 10.7819 9.48663 10.6952V7.77519H6.45996V7.78186Z" fill="#333333"/>
</svg>
