<svg width="14" height="15" viewBox="0 0 14 15" fill="none" xmlns="http://www.w3.org/2000/svg">
<path d="M13.5002 3.61523H11.7071L13.354 1.96898C13.4004 1.92253 13.4373 1.86738 13.4624 1.80668C13.4876 1.74599 13.5005 1.68093 13.5005 1.61523C13.5005 1.54954 13.4876 1.48448 13.4624 1.42379C13.4373 1.36309 13.4004 1.30794 13.354 1.26148C13.3075 1.21503 13.2524 1.17818 13.1917 1.15304C13.131 1.1279 13.0659 1.11496 13.0002 1.11496C12.9345 1.11496 12.8695 1.1279 12.8088 1.15304C12.7481 1.17818 12.6929 1.21503 12.6465 1.26148L11.0002 2.90836V1.11523C11.0002 0.982626 10.9476 0.855449 10.8538 0.761681C10.76 0.667913 10.6328 0.615234 10.5002 0.615234C10.3676 0.615234 10.2405 0.667913 10.1467 0.761681C10.0529 0.855449 10.0002 0.982626 10.0002 1.11523V3.15086C9.23836 2.71104 8.35274 2.53464 7.48049 2.64898C6.60824 2.76333 5.79801 3.16203 5.17524 3.78336C2.66899 6.24523 0.784614 12.1009 0.600864 12.6865C0.514228 12.8725 0.486887 13.0806 0.522549 13.2826C0.558211 13.4846 0.65515 13.6708 0.800218 13.8159C0.945286 13.9609 1.13146 14.0579 1.3335 14.0935C1.53553 14.1292 1.74365 14.1019 1.92961 14.0152C2.51524 13.8315 8.37836 11.9446 10.834 9.43961C11.4549 8.81666 11.8531 8.00644 11.9671 7.13433C12.0811 6.26222 11.9045 5.37685 11.4646 4.61523H13.5002C13.6328 4.61523 13.76 4.56256 13.8538 4.46879C13.9476 4.37502 14.0002 4.24784 14.0002 4.11523C14.0002 3.98263 13.9476 3.85545 13.8538 3.76168C13.76 3.66791 13.6328 3.61523 13.5002 3.61523ZM10.1177 8.74023C9.55899 9.31023 8.78961 9.85273 7.93961 10.3484L6.35336 8.76148C6.30691 8.71503 6.25176 8.67818 6.19106 8.65304C6.13036 8.6279 6.06531 8.61496 5.99961 8.61496C5.93392 8.61496 5.86886 8.6279 5.80817 8.65304C5.74747 8.67818 5.69232 8.71503 5.64586 8.76148C5.59941 8.80794 5.56256 8.86309 5.53742 8.92379C5.51228 8.98448 5.49934 9.04954 5.49934 9.11523C5.49934 9.18093 5.51228 9.24599 5.53742 9.30668C5.56256 9.36738 5.59941 9.42253 5.64586 9.46898L7.02649 10.8496C4.47211 12.174 1.63149 13.0634 1.58899 13.0765C1.55821 13.0865 1.52849 13.0995 1.50024 13.1152C1.51534 13.0871 1.52769 13.0576 1.53711 13.0271C1.55524 12.969 3.28711 7.42836 5.53711 4.86023L7.64774 6.97086C7.74156 7.06468 7.86881 7.11739 8.00149 7.11739C8.13417 7.11739 8.26142 7.06468 8.35524 6.97086C8.44906 6.87704 8.50177 6.74979 8.50177 6.61711C8.50177 6.48443 8.44906 6.35718 8.35524 6.26336L6.26149 4.17023C6.87492 3.73378 7.63003 3.54392 8.37694 3.63834C9.12386 3.73277 9.80796 4.10457 10.2935 4.67995C10.779 5.25533 11.0304 5.99223 10.9979 6.74439C10.9653 7.49654 10.6512 8.20896 10.1177 8.74023Z" fill="#333333"/>
</svg>
