<svg width="24" height="25" viewBox="0 0 24 25" fill="none" xmlns="http://www.w3.org/2000/svg">
<path d="M20.0402 7.32L14.2802 3.29C12.7102 2.19 10.3002 2.25 8.79023 3.42L3.78023 7.33C2.78023 8.11 1.99023 9.71 1.99023 10.97V17.87C1.99023 20.42 4.06023 22.5 6.61023 22.5H17.3902C19.9402 22.5 22.0102 20.43 22.0102 17.88V11.1C22.0102 9.75 21.1402 8.09 20.0402 7.32ZM12.7502 18.5C12.7502 18.91 12.4102 19.25 12.0002 19.25C11.5902 19.25 11.2502 18.91 11.2502 18.5V15.5C11.2502 15.09 11.5902 14.75 12.0002 14.75C12.4102 14.75 12.7502 15.09 12.7502 15.5V18.5Z" fill="#555555"/>
</svg>
