<svg width="12" height="12" viewBox="0 0 12 12" fill="none" xmlns="http://www.w3.org/2000/svg">
<path d="M6 10.825C5.845 10.825 5.695 10.805 5.57 10.76C3.66 10.105 0.625 7.78 0.625 4.345C0.625 2.595 2.04 1.175 3.78 1.175C4.625 1.175 5.415 1.505 6 2.095C6.585 1.505 7.375 1.175 8.22 1.175C9.96 1.175 11.375 2.6 11.375 4.345C11.375 7.785 8.34 10.105 6.43 10.76C6.305 10.805 6.155 10.825 6 10.825ZM3.78 1.925C2.455 1.925 1.375 3.01 1.375 4.345C1.375 7.76 4.66 9.66 5.815 10.055C5.905 10.085 6.1 10.085 6.19 10.055C7.34 9.66 10.63 7.765 10.63 4.345C10.63 3.01 9.55 1.925 8.225 1.925C7.465 1.925 6.76 2.28 6.305 2.895C6.165 3.085 5.845 3.085 5.705 2.895C5.24 2.275 4.54 1.925 3.78 1.925Z" fill="#333333"/>
</svg>
