<svg width="25" height="25" viewBox="0 0 25 25" fill="none" xmlns="http://www.w3.org/2000/svg">
<path d="M22.5 9.75H2.5C2.09 9.75 1.75 9.41 1.75 9C1.75 8.59 2.09 8.25 2.5 8.25H22.5C22.91 8.25 23.25 8.59 23.25 9C23.25 9.41 22.91 9.75 22.5 9.75Z" fill="#000"/>
<path d="M8.5 17.75H6.5C6.09 17.75 5.75 17.41 5.75 17C5.75 16.59 6.09 16.25 6.5 16.25H8.5C8.91 16.25 9.25 16.59 9.25 17C9.25 17.41 8.91 17.75 8.5 17.75Z" fill="#000"/>
<path d="M15 17.75H11C10.59 17.75 10.25 17.41 10.25 17C10.25 16.59 10.59 16.25 11 16.25H15C15.41 16.25 15.75 16.59 15.75 17C15.75 17.41 15.41 17.75 15 17.75Z" fill="#000"/>
<path d="M18.06 21.75H6.94C2.96 21.75 1.75 20.55 1.75 16.61V8.39C1.75 4.45 2.96 3.25 6.94 3.25H18.05C22.03 3.25 23.24 4.45 23.24 8.39V16.6C23.25 20.55 22.04 21.75 18.06 21.75ZM6.94 4.75C3.8 4.75 3.25 5.29 3.25 8.39V16.6C3.25 19.7 3.8 20.24 6.94 20.24H18.05C21.19 20.24 21.74 19.7 21.74 16.6V8.39C21.74 5.29 21.19 4.75 18.05 4.75H6.94Z" fill="#000"/>
</svg>
