<svg width="113" height="110" viewBox="0 0 113 110" fill="none" xmlns="http://www.w3.org/2000/svg">
<g opacity="0.5">
<path d="M110.744 102.649L80.7422 72.6471C86.6502 65.0213 90.1714 55.4534 90.1714 45.0857C90.1714 20.2253 69.9461 0 45.0857 0C20.2253 0 0 20.2253 0 45.0857C0 69.9461 20.2253 90.1714 45.0857 90.1714C56.4938 90.1714 66.9308 85.9117 74.879 78.8939L104.689 108.703C105.525 109.54 106.618 109.96 107.716 109.96C108.814 109.96 109.907 109.54 110.744 108.703C112.42 107.031 112.42 104.321 110.744 102.649ZM72.3003 69.4075C71.9658 69.7869 71.623 70.1542 71.2681 70.5173C64.6296 77.3516 55.3432 81.6031 45.0857 81.6031C24.9501 81.6031 8.56833 65.2213 8.56833 45.0857C8.56833 24.9501 24.9501 8.56832 45.0857 8.56832C65.2213 8.56832 81.6031 24.9501 81.6031 45.0857C81.6031 54.4211 78.0819 62.9445 72.3003 69.4075Z" fill="#DCDCDC"/>
</g>
<g opacity="0.5">
<path d="M64.2641 35.2761C64.2641 37.4059 62.5378 39.1322 60.4079 39.1322C58.2781 39.1322 56.5518 37.4059 56.5518 35.2761C56.5518 33.1462 58.2781 31.4199 60.4079 31.4199C62.5378 31.4199 64.2641 33.1462 64.2641 35.2761Z" fill="#DCDCDC"/>
<path d="M33.4154 35.2761C33.4154 37.4059 31.6891 39.1322 29.5593 39.1322C27.4294 39.1322 25.7031 37.4059 25.7031 35.2761C25.7031 33.1462 27.4294 31.4199 29.5593 31.4199C31.6891 31.4199 33.4154 33.1462 33.4154 35.2761Z" fill="#DCDCDC"/>
<path d="M32.453 58.96C31.8573 58.96 31.2706 58.685 30.8928 58.1672C30.2656 57.3067 30.4554 56.1006 31.3159 55.4735C35.3997 52.4975 40.2375 50.9246 45.3055 50.9246C50.067 50.9246 54.6633 52.3277 58.5958 54.9827C59.4783 55.5784 59.7105 56.7771 59.1148 57.6597C58.5199 58.5422 57.3211 58.7756 56.4382 58.1787C53.1451 55.9558 49.2959 54.7807 45.3055 54.7807C41.0589 54.7807 37.0065 56.0982 33.5865 58.5904C33.2437 58.8401 32.8463 58.96 32.453 58.96Z" fill="#DCDCDC"/>
</g>
</svg>
