<svg width="25" height="25" viewBox="0 0 25 25" fill="none" xmlns="http://www.w3.org/2000/svg">
<path d="M10.2229 15.902C10.0329 15.902 9.84291 15.832 9.69291 15.682C8.87291 14.862 8.42291 13.772 8.42291 12.622C8.42291 10.232 10.3629 8.29199 12.7529 8.29199C13.9029 8.29199 14.9929 8.74199 15.8129 9.56199C15.9529 9.70199 16.0329 9.89199 16.0329 10.092C16.0329 10.292 15.9529 10.482 15.8129 10.622L10.7529 15.682C10.6029 15.832 10.4129 15.902 10.2229 15.902ZM12.7529 9.79199C11.1929 9.79199 9.92291 11.062 9.92291 12.622C9.92291 13.122 10.0529 13.602 10.2929 14.022L14.1529 10.162C13.7329 9.92199 13.2529 9.79199 12.7529 9.79199Z" fill="#888888"/>
<path d="M6.35296 19.1321C6.18296 19.1321 6.00296 19.0721 5.86296 18.9521C4.79296 18.0421 3.83296 16.9221 3.01296 15.6221C1.95296 13.9721 1.95296 11.2821 3.01296 9.62205C5.45296 5.80205 9.00296 3.60205 12.753 3.60205C14.953 3.60205 17.123 4.36205 19.023 5.79205C19.353 6.04205 19.423 6.51205 19.173 6.84205C18.923 7.17205 18.453 7.24205 18.123 6.99205C16.483 5.75205 14.623 5.10205 12.753 5.10205C9.52296 5.10205 6.43296 7.04205 4.27296 10.4321C3.52296 11.6021 3.52296 13.642 4.27296 14.812C5.02296 15.982 5.88296 16.9921 6.83296 17.8121C7.14296 18.0821 7.18296 18.5521 6.91296 18.8721C6.77296 19.0421 6.56296 19.1321 6.35296 19.1321Z" fill="#888888"/>
<path d="M12.7529 21.6421C11.4229 21.6421 10.1229 21.3721 8.87293 20.8421C8.49293 20.6821 8.31293 20.2421 8.47293 19.8621C8.63293 19.4821 9.07293 19.3021 9.45293 19.4621C10.5129 19.9121 11.6229 20.1421 12.7429 20.1421C15.9729 20.1421 19.0629 18.2021 21.2229 14.8121C21.9729 13.6421 21.9729 11.6021 21.2229 10.4321C20.9129 9.94207 20.5729 9.47207 20.2129 9.03207C19.9529 8.71207 20.0029 8.24207 20.3229 7.97207C20.6429 7.71207 21.1129 7.75207 21.3829 8.08207C21.7729 8.56207 22.1529 9.08207 22.4929 9.62207C23.5529 11.2721 23.5529 13.9621 22.4929 15.6221C20.0529 19.4421 16.5029 21.6421 12.7529 21.6421Z" fill="#888888"/>
<path d="M13.4429 16.8922C13.0929 16.8922 12.7729 16.6422 12.7029 16.2822C12.6229 15.8722 12.8929 15.4822 13.3029 15.4122C14.4029 15.2122 15.3229 14.2922 15.5229 13.1922C15.6029 12.7822 15.9929 12.5222 16.4029 12.5922C16.8129 12.6722 17.0829 13.0622 17.0029 13.4722C16.6829 15.2022 15.3029 16.5722 13.5829 16.8922C13.5329 16.8822 13.4929 16.8922 13.4429 16.8922Z" fill="#888888"/>
<path d="M2.75293 23.372C2.56293 23.372 2.37293 23.302 2.22293 23.152C1.93293 22.862 1.93293 22.382 2.22293 22.092L9.69293 14.622C9.98293 14.332 10.4629 14.332 10.7529 14.622C11.0429 14.912 11.0429 15.392 10.7529 15.682L3.28293 23.152C3.13293 23.302 2.94293 23.372 2.75293 23.372Z" fill="#888888"/>
<path d="M15.2829 10.842C15.0929 10.842 14.9029 10.772 14.7529 10.622C14.4629 10.332 14.4629 9.85201 14.7529 9.56201L22.2229 2.09201C22.5129 1.80201 22.9929 1.80201 23.2829 2.09201C23.5729 2.38201 23.5729 2.86201 23.2829 3.15201L15.8129 10.622C15.6629 10.772 15.4729 10.842 15.2829 10.842Z" fill="#888888"/>
</svg>
