<svg width="14" height="15" viewBox="0 0 14 15" fill="none" xmlns="http://www.w3.org/2000/svg">
<path d="M13.3538 13.2615L10.3276 10.2359C10.3963 10.2152 10.4645 10.1934 10.532 10.169C11.4659 9.82879 12.2266 9.13174 12.6468 8.23099C13.0671 7.33023 13.1126 6.29948 12.7732 5.36523C12.7278 5.24069 12.6349 5.13927 12.5147 5.08325C12.3946 5.02723 12.2572 5.0212 12.1326 5.06648L9.37009 6.07148C9.39009 6.03273 9.4101 5.99398 9.42822 5.95398C9.7418 5.28202 9.84913 4.53216 9.73662 3.79921C9.62411 3.06626 9.29683 2.38312 8.79614 1.83614C8.29545 1.28917 7.64384 0.902908 6.92367 0.726199C6.20349 0.549489 5.4471 0.59026 4.75009 0.843358C4.6882 0.865578 4.6313 0.899787 4.58265 0.944028C4.534 0.988269 4.49456 1.04167 4.46658 1.10118C4.43859 1.16068 4.42262 1.22513 4.41958 1.29081C4.41654 1.3565 4.42648 1.42214 4.44884 1.48398L5.45384 4.24648C5.41509 4.22648 5.37634 4.20648 5.33634 4.18836C4.66423 3.87517 3.91436 3.76826 3.1815 3.88116C2.44865 3.99405 1.76571 4.32168 1.21901 4.82262C0.672314 5.32356 0.286399 5.97534 0.110045 6.69556C-0.0663088 7.41579 -0.0251847 8.17213 0.228219 8.86898C0.273593 8.99352 0.366561 9.09495 0.486689 9.15097C0.606817 9.20699 0.744273 9.21302 0.868844 9.16773L3.63134 8.16211C3.61134 8.20148 3.59134 8.24023 3.57322 8.28023C3.26003 8.95234 3.15312 9.70222 3.26602 10.4351C3.37891 11.1679 3.70654 11.8509 4.20748 12.3976C4.70843 12.9443 5.3602 13.3302 6.08042 13.5065C6.80065 13.6829 7.55699 13.6418 8.25384 13.3884C8.37838 13.343 8.47981 13.25 8.53583 13.1299C8.59185 13.0098 8.59788 12.8723 8.55259 12.7477L7.54697 9.98523C7.58634 10.0052 7.62509 10.0252 7.66509 10.0434C8.10626 10.25 8.58352 10.3684 9.07009 10.3921L12.6463 13.969C12.7402 14.0628 12.8674 14.1155 13.0001 14.1155C13.1328 14.1155 13.26 14.0628 13.3538 13.969C13.4477 13.8752 13.5004 13.7479 13.5004 13.6152C13.5004 13.4826 13.4477 13.3553 13.3538 13.2615ZM7.19197 1.87461C7.64699 2.08604 8.03549 2.41792 8.3154 2.83432C8.59532 3.25071 8.75599 3.73576 8.78 4.23692C8.80401 4.73808 8.69045 5.23626 8.45163 5.67752C8.2128 6.11877 7.85781 6.48627 7.42509 6.74023L5.57447 1.65461C6.12345 1.56105 6.68792 1.63783 7.19197 1.87461ZM1.03947 8.04148C0.930851 7.40651 1.0486 6.75355 1.37217 6.19651C1.69575 5.63947 2.20461 5.21371 2.81 4.99348C3.41539 4.77326 4.07887 4.77256 4.68473 4.9915C5.29058 5.21044 5.80034 5.63513 6.12509 6.19148L1.03947 8.04148ZM5.81259 12.3571C5.35819 12.1454 4.97029 11.8136 4.69082 11.3974C4.41135 10.9813 4.25095 10.4967 4.22694 9.99597C4.20294 9.49526 4.31626 8.99752 4.55464 8.55655C4.79302 8.11557 5.1474 7.74815 5.57947 7.49398L7.42947 12.5771C6.88069 12.6707 6.31643 12.5939 5.81259 12.3571ZM9.28509 9.39586H9.27822C8.79507 9.39952 8.31943 9.27623 7.8989 9.03833C7.47837 8.80042 7.1277 8.45624 6.88197 8.04023L11.9651 6.18961C12.0303 6.58109 12.0102 6.98204 11.9061 7.36501C11.8019 7.74797 11.6162 8.1039 11.3617 8.40841C11.1071 8.71292 10.7898 8.95882 10.4314 9.12925C10.073 9.29968 9.68194 9.39063 9.28509 9.39586Z" fill="#333333"/>
</svg>
