<svg width="24" height="25" viewBox="0 0 24 25" fill="none" xmlns="http://www.w3.org/2000/svg">
<path d="M8.56976 16.52C8.37976 16.52 8.18977 16.45 8.03977 16.3C7.74977 16.01 7.74977 15.53 8.03977 15.24L14.5898 8.69003C14.8798 8.40003 15.3598 8.40003 15.6498 8.69003C15.9398 8.98003 15.9398 9.46003 15.6498 9.75003L9.09976 16.3C8.94976 16.45 8.75976 16.52 8.56976 16.52Z" fill="#000"/>
<path d="M8.98001 11.61C7.89001 11.61 7 10.72 7 9.63004C7 8.54004 7.89001 7.65002 8.98001 7.65002C10.07 7.65002 10.96 8.54004 10.96 9.63004C10.96 10.72 10.07 11.61 8.98001 11.61ZM8.98001 9.16003C8.72001 9.16003 8.5 9.37005 8.5 9.64005C8.5 9.91005 8.71001 10.12 8.98001 10.12C9.25001 10.12 9.45999 9.91005 9.45999 9.64005C9.45999 9.37005 9.24001 9.16003 8.98001 9.16003Z" fill="#000"/>
<path d="M15.52 17.34C14.43 17.34 13.54 16.45 13.54 15.36C13.54 14.27 14.43 13.38 15.52 13.38C16.61 13.38 17.5 14.27 17.5 15.36C17.5 16.45 16.61 17.34 15.52 17.34ZM15.52 14.89C15.26 14.89 15.04 15.1 15.04 15.37C15.04 15.64 15.25 15.85 15.52 15.85C15.79 15.85 16 15.64 16 15.37C16 15.1 15.79 14.89 15.52 14.89Z" fill="#000"/>
<path d="M12 23.25C6.07 23.25 1.25 18.43 1.25 12.5C1.25 6.57 6.07 1.75 12 1.75C17.93 1.75 22.75 6.57 22.75 12.5C22.75 18.43 17.93 23.25 12 23.25ZM12 3.25C6.9 3.25 2.75 7.4 2.75 12.5C2.75 17.6 6.9 21.75 12 21.75C17.1 21.75 21.25 17.6 21.25 12.5C21.25 7.4 17.1 3.25 12 3.25Z" fill="#000"/>
</svg>
