<svg width="14" height="14" viewBox="0 0 14 14" fill="none" xmlns="http://www.w3.org/2000/svg">
<path d="M7.27451 11.4188L10.4245 13.4188C10.8308 13.675 11.3308 13.2938 11.212 12.825L10.2995 9.23752C10.2748 9.13807 10.2788 9.03369 10.3108 8.93638C10.3429 8.83907 10.4018 8.7528 10.4808 8.68752L13.3058 6.33127C13.6745 6.02502 13.487 5.40627 13.0058 5.37502L9.31826 5.13752C9.21764 5.13166 9.12091 5.09663 9.03989 5.03669C8.95886 4.97675 8.89705 4.89451 8.86201 4.80002L7.48701 1.33752C7.45061 1.23745 7.38431 1.15102 7.29709 1.08994C7.20988 1.02886 7.10598 0.996094 6.99951 0.996094C6.89303 0.996094 6.78914 1.02886 6.70192 1.08994C6.61471 1.15102 6.54841 1.23745 6.51201 1.33752L5.13701 4.80002C5.10196 4.89451 5.04015 4.97675 4.95913 5.03669C4.8781 5.09663 4.78137 5.13166 4.68076 5.13752L0.993259 5.37502C0.512009 5.40627 0.324509 6.02502 0.693259 6.33127L3.51826 8.68752C3.59722 8.7528 3.65612 8.83907 3.68819 8.93638C3.72026 9.03369 3.72418 9.13807 3.69951 9.23752L2.85576 12.5625C2.71201 13.125 3.31201 13.5813 3.79326 13.275L6.72451 11.4188C6.80671 11.3665 6.9021 11.3387 6.99951 11.3387C7.09692 11.3387 7.19231 11.3665 7.27451 11.4188Z" fill="#F7C600"/>
</svg>
