<svg width="14" height="14" viewBox="0 0 14 14" fill="none" xmlns="http://www.w3.org/2000/svg">
<path d="M12.25 4.52081H1.75C1.51083 4.52081 1.3125 4.32248 1.3125 4.08331C1.3125 3.84415 1.51083 3.64581 1.75 3.64581H12.25C12.4892 3.64581 12.6875 3.84415 12.6875 4.08331C12.6875 4.32248 12.4892 4.52081 12.25 4.52081Z" fill="#555555"/>
<path d="M10.5 7.4375H3.5C3.26083 7.4375 3.0625 7.23917 3.0625 7C3.0625 6.76083 3.26083 6.5625 3.5 6.5625H10.5C10.7392 6.5625 10.9375 6.76083 10.9375 7C10.9375 7.23917 10.7392 7.4375 10.5 7.4375Z" fill="#555555"/>
<path d="M8.16683 10.3541H5.8335C5.59433 10.3541 5.396 10.1558 5.396 9.91663C5.396 9.67746 5.59433 9.47913 5.8335 9.47913H8.16683C8.406 9.47913 8.60433 9.67746 8.60433 9.91663C8.60433 10.1558 8.406 10.3541 8.16683 10.3541Z" fill="#555555"/>
</svg>
