<svg width="13" height="13" viewBox="0 0 13 13" fill="none" xmlns="http://www.w3.org/2000/svg">
<path d="M12.4781 10.7746L10.4038 0.912066C10.3769 0.783092 10.3249 0.66069 10.2506 0.551892C10.1763 0.443093 10.0813 0.350043 9.97093 0.278086C9.86059 0.206129 9.73711 0.156683 9.6076 0.13259C9.47809 0.108496 9.34509 0.11023 9.21625 0.137691L6.29062 0.766441C6.03184 0.823104 5.8059 0.97965 5.66194 1.20203C5.51798 1.42441 5.46764 1.69464 5.52187 1.95394L7.59625 11.8164C7.64248 12.0415 7.76477 12.2437 7.94255 12.3892C8.12034 12.5346 8.34279 12.6144 8.5725 12.6152C8.64351 12.6151 8.71431 12.6076 8.78375 12.5927L11.7094 11.9639C11.9685 11.9071 12.1946 11.7503 12.3386 11.5275C12.4826 11.3048 12.5327 11.0341 12.4781 10.7746ZM6.5 1.74957C6.5 1.74582 6.5 1.74394 6.5 1.74394L9.425 1.11894L9.63313 2.11082L6.70813 2.74019L6.5 1.74957ZM6.91375 3.71644L9.84 3.08832L10.0487 4.08207L7.125 4.71082L6.91375 3.71644ZM7.32875 5.68957L10.255 5.06082L11.0863 9.01332L8.16 9.64207L7.32875 5.68957ZM11.5 10.9864L8.575 11.6114L8.36687 10.6196L11.2919 9.99019L11.5 10.9808C11.5 10.9846 11.5 10.9864 11.5 10.9864ZM4.5 0.615191H1.5C1.23478 0.615191 0.98043 0.720548 0.792893 0.908084C0.605357 1.09562 0.5 1.34997 0.5 1.61519V11.6152C0.5 11.8804 0.605357 12.1348 0.792893 12.3223C0.98043 12.5098 1.23478 12.6152 1.5 12.6152H4.5C4.76522 12.6152 5.01957 12.5098 5.20711 12.3223C5.39464 12.1348 5.5 11.8804 5.5 11.6152V1.61519C5.5 1.34997 5.39464 1.09562 5.20711 0.908084C5.01957 0.720548 4.76522 0.615191 4.5 0.615191ZM1.5 1.61519H4.5V2.61519H1.5V1.61519ZM1.5 3.61519H4.5V9.61519H1.5V3.61519ZM4.5 11.6152H1.5V10.6152H4.5V11.6152Z" fill="#333333"/>
</svg>
