<svg width="12" height="15" viewBox="0 0 12 15" fill="none" xmlns="http://www.w3.org/2000/svg">
<path d="M9.5 5.66523V5.11523C9.5 4.5848 9.28929 4.07609 8.91421 3.70102C8.53914 3.32595 8.03043 3.11523 7.5 3.11523H6.5V1.61523H8.5C8.63261 1.61523 8.75979 1.66791 8.85355 1.76168C8.94732 1.85545 9 1.98263 9 2.11523C9 2.24784 9.05268 2.37502 9.14645 2.46879C9.24021 2.56256 9.36739 2.61523 9.5 2.61523C9.63261 2.61523 9.75979 2.56256 9.85355 2.46879C9.94732 2.37502 10 2.24784 10 2.11523C10 1.71741 9.84196 1.33588 9.56066 1.05457C9.27936 0.77327 8.89782 0.615234 8.5 0.615234H4.5C4.36739 0.615234 4.24021 0.667913 4.14645 0.761681C4.05268 0.855449 4 0.982626 4 1.11523C4 1.24784 4.05268 1.37502 4.14645 1.46879C4.24021 1.56256 4.36739 1.61523 4.5 1.61523H5.5V3.11523H4.5C3.96957 3.11523 3.46086 3.32595 3.08579 3.70102C2.71071 4.07609 2.5 4.5848 2.5 5.11523V5.66523C1.9357 5.78126 1.42865 6.0883 1.06433 6.53459C0.700013 6.98088 0.500704 7.53913 0.5 8.11523V13.1152C0.5 13.3805 0.605357 13.6348 0.792893 13.8223C0.98043 14.0099 1.23478 14.1152 1.5 14.1152H10.5C10.7652 14.1152 11.0196 14.0099 11.2071 13.8223C11.3946 13.6348 11.5 13.3805 11.5 13.1152V8.11523C11.4993 7.53913 11.3 6.98088 10.9357 6.53459C10.5714 6.0883 10.0643 5.78126 9.5 5.66523ZM4.5 4.11523H7.5C7.76522 4.11523 8.01957 4.22059 8.20711 4.40813C8.39464 4.59566 8.5 4.85002 8.5 5.11523V5.61523H3.5V5.11523C3.5 4.85002 3.60536 4.59566 3.79289 4.40813C3.98043 4.22059 4.23478 4.11523 4.5 4.11523ZM10.5 13.1152H1.5V8.11523C1.5 7.71741 1.65804 7.33588 1.93934 7.05457C2.22064 6.77327 2.60218 6.61523 3 6.61523H9C9.39782 6.61523 9.77936 6.77327 10.0607 7.05457C10.342 7.33588 10.5 7.71741 10.5 8.11523V13.1152Z" fill="#333333"/>
</svg>
