<svg width="6" height="6" viewBox="0 0 6 6" fill="none" xmlns="http://www.w3.org/2000/svg">
<path d="M4.51729 2.57986C4.46979 2.57986 4.42229 2.56236 4.38479 2.52486L2.99979 1.13986L1.61479 2.52486C1.54229 2.59736 1.42229 2.59736 1.34979 2.52486C1.27729 2.45236 1.27729 2.33236 1.34979 2.25986L2.86729 0.742363C2.93979 0.669863 3.05979 0.669863 3.13229 0.742363L4.64979 2.25986C4.72229 2.33236 4.72229 2.45236 4.64979 2.52486C4.61479 2.56236 4.56479 2.57986 4.51729 2.57986Z" fill="#FCFCFC"/>
<path d="M3 5.31248C2.8975 5.31248 2.8125 5.22748 2.8125 5.12498V0.91748C2.8125 0.81498 2.8975 0.72998 3 0.72998C3.1025 0.72998 3.1875 0.81498 3.1875 0.91748V5.12498C3.1875 5.22748 3.1025 5.31248 3 5.31248Z" fill="#FCFCFC"/>
</svg>
