<svg width="24" height="25" viewBox="0 0 24 25" fill="none" xmlns="http://www.w3.org/2000/svg">
<path d="M17 21.25H7C2.59 21.25 1.25 19.91 1.25 15.5V15C1.25 14.59 1.59 14.25 2 14.25C2.96 14.25 3.75 13.46 3.75 12.5C3.75 11.54 2.96 10.75 2 10.75C1.59 10.75 1.25 10.41 1.25 10V9.5C1.25 5.09 2.59 3.75 7 3.75H17C21.41 3.75 22.75 5.09 22.75 9.5V10.5C22.75 10.91 22.41 11.25 22 11.25C21.04 11.25 20.25 12.04 20.25 13C20.25 13.96 21.04 14.75 22 14.75C22.41 14.75 22.75 15.09 22.75 15.5C22.75 19.91 21.41 21.25 17 21.25ZM2.75 15.66C2.77 19.1 3.48 19.75 7 19.75H17C20.34 19.75 21.15 19.16 21.24 16.16C19.81 15.82 18.75 14.53 18.75 13C18.75 11.47 19.82 10.18 21.25 9.84V9.5C21.25 5.93 20.58 5.25 17 5.25H7C3.48 5.25 2.77 5.9 2.75 9.34C4.18 9.68 5.25 10.97 5.25 12.5C5.25 14.03 4.18 15.32 2.75 15.66Z" fill="#000"/>
<path d="M10 7.75C9.59 7.75 9.25 7.41 9.25 7V4.5C9.25 4.09 9.59 3.75 10 3.75C10.41 3.75 10.75 4.09 10.75 4.5V7C10.75 7.41 10.41 7.75 10 7.75Z" fill="#000"/>
<path d="M10 15.08C9.59 15.08 9.25 14.74 9.25 14.33V10.66C9.25 10.25 9.59 9.90997 10 9.90997C10.41 9.90997 10.75 10.25 10.75 10.66V14.33C10.75 14.75 10.41 15.08 10 15.08Z" fill="#000"/>
<path d="M10 21.25C9.59 21.25 9.25 20.91 9.25 20.5V18C9.25 17.59 9.59 17.25 10 17.25C10.41 17.25 10.75 17.59 10.75 18V20.5C10.75 20.91 10.41 21.25 10 21.25Z" fill="#000"/>
</svg>
