<svg width="24" height="25" viewBox="0 0 24 25" fill="none" xmlns="http://www.w3.org/2000/svg">
<path d="M5.20018 10.96C5.01018 10.96 4.81018 10.88 4.67018 10.74C4.46018 10.52 4.39018 10.2 4.51018 9.92L6.37018 5.48C6.41018 5.39 6.43018 5.33 6.46018 5.28C7.94018 1.87 9.83018 1.04 13.1702 2.32C13.3602 2.39 13.5102 2.54 13.5902 2.73C13.6702 2.92 13.6702 3.13 13.5902 3.32L10.6602 10.12C10.5402 10.4 10.2702 10.57 9.97018 10.57H7.12018C6.55018 10.57 6.01018 10.68 5.49018 10.9C5.40018 10.94 5.30018 10.96 5.20018 10.96ZM10.6102 3.25C9.37018 3.25 8.61018 4.06 7.82018 5.9C7.81018 5.93 7.79018 5.96 7.78018 5.99L6.47018 9.1C6.69018 9.08 6.90018 9.07 7.12018 9.07H9.47018L11.8802 3.47C11.4102 3.32 10.9902 3.25 10.6102 3.25Z" fill="#000"/>
<path d="M18.2902 10.77C18.2202 10.77 18.1402 10.76 18.0702 10.74C17.6902 10.63 17.2902 10.57 16.8702 10.57H9.97023C9.72023 10.57 9.48023 10.44 9.34023 10.23C9.21023 10.02 9.18023 9.74999 9.28023 9.51999L12.1802 2.78999C12.3302 2.42999 12.7702 2.17999 13.1402 2.30999C13.2602 2.34999 13.3702 2.39999 13.4902 2.44999L15.8502 3.43999C17.2302 4.00999 18.1502 4.60999 18.7502 5.32999C18.8702 5.46999 18.9702 5.61999 19.0702 5.77999C19.1802 5.94999 19.2802 6.14999 19.3502 6.35999C19.3802 6.42999 19.4302 6.55999 19.4602 6.69999C19.7402 7.64999 19.6002 8.80999 19.0002 10.31C18.8702 10.59 18.5902 10.77 18.2902 10.77ZM11.1102 9.06999H16.8802C17.2002 9.06999 17.5102 9.09999 17.8202 9.14999C18.1002 8.27999 18.1602 7.60999 18.0002 7.06999C17.9802 6.97999 17.9602 6.93999 17.9502 6.89999C17.8902 6.73999 17.8502 6.64999 17.8002 6.56999C17.7302 6.45999 17.6802 6.36999 17.6002 6.27999C17.1702 5.75999 16.4102 5.27999 15.2702 4.80999L13.3002 3.98999L11.1102 9.06999Z" fill="#000"/>
<path d="M15.9 23.25H8.1C7.82 23.25 7.56 23.23 7.3 23.2C3.79 22.97 1.79 20.96 1.55 17.41C1.52 17.19 1.5 16.92 1.5 16.65V14.7C1.5 12.45 2.84 10.42 4.91 9.52001C5.62 9.22001 6.36 9.07001 7.13 9.07001H16.89C17.46 9.07001 18.01 9.15001 18.52 9.31001C20.87 10.02 22.52 12.24 22.52 14.7V16.65C22.52 16.87 22.51 17.08 22.5 17.28C22.28 21.19 20 23.25 15.9 23.25ZM7.12 10.57C6.55 10.57 6.01 10.68 5.49 10.9C3.97 11.56 2.99 13.05 2.99 14.7V16.65C2.99 16.86 3.01 17.07 3.03 17.27C3.22 20.12 4.62 21.52 7.43 21.71C7.68 21.74 7.88 21.76 8.09 21.76H15.89C19.19 21.76 20.81 20.31 20.97 17.21C20.98 17.03 20.99 16.85 20.99 16.65V14.7C20.99 12.89 19.78 11.27 18.06 10.74C17.68 10.63 17.28 10.57 16.86 10.57H7.12Z" fill="#000"/>
<path d="M2.24023 15.45C1.83023 15.45 1.49023 15.11 1.49023 14.7V11.77C1.49023 8.61998 3.72023 5.89998 6.80023 5.29998C7.07023 5.24998 7.35023 5.34998 7.53023 5.55998C7.70023 5.76998 7.75023 6.06998 7.64023 6.31998L5.89023 10.5C5.81023 10.68 5.67023 10.82 5.50023 10.9C3.98023 11.56 3.00023 13.05 3.00023 14.7C2.99023 15.11 2.66023 15.45 2.24023 15.45ZM5.60023 7.31998C4.32023 8.03998 3.39023 9.29998 3.10023 10.77C3.54023 10.32 4.05023 9.93998 4.63023 9.65998L5.60023 7.31998Z" fill="#000"/>
<path d="M21.7601 15.45C21.3501 15.45 21.0101 15.11 21.0101 14.7C21.0101 12.89 19.8001 11.27 18.0801 10.74C17.8801 10.68 17.7101 10.54 17.6201 10.35C17.5301 10.16 17.5201 9.94002 17.6001 9.75002C18.0701 8.58002 18.1901 7.73002 18.0001 7.07002C17.9801 6.98002 17.9601 6.94002 17.9501 6.90002C17.8201 6.61002 17.8901 6.27002 18.1201 6.05002C18.3501 5.83002 18.7001 5.78002 18.9801 5.93002C21.1601 7.07002 22.5101 9.31002 22.5101 11.77V14.7C22.5101 15.11 22.1701 15.45 21.7601 15.45ZM19.2501 9.59002C19.8801 9.88002 20.4401 10.29 20.9101 10.78C20.7201 9.80002 20.2501 8.91002 19.5601 8.21002C19.5101 8.63002 19.4101 9.09002 19.2501 9.59002Z" fill="#000"/>
</svg>
